<?xml version="1.0" encoding="utf-8"?>
<!-- Generator: Adobe Illustrator 24.1.2, SVG Export Plug-In . SVG Version: 6.00 Build 0)  -->
<svg version="1.1" id="Слой_1" xmlns="http://www.w3.org/2000/svg" xmlns:xlink="http://www.w3.org/1999/xlink" x="0px" y="0px"
	 viewBox="0 0 100 100" style="enable-background:new 0 0 100 100;" xml:space="preserve">
<style type="text/css">
	.st0{opacity:0.5;}
	.st1{fill:#AA5013;}
	.st2{fill:#00B200;}
</style>
<g class="st0">
	<path class="st1" d="M41.4,96.8v-15c0-1.6,1.3-2.9,2.9-2.9H51c1.6,0,2.9,1.3,2.9,2.9v15c0,1.6-1.3,2.9-2.9,2.9h-6.7
		C42.7,99.7,41.4,98.4,41.4,96.8z"/>
	<path class="st2" d="M24.2,17c-1.5-3.9,1.9-9,4.6-11.5c13.3-12.1,50.7,0,50.7,8c0,6.3-23.5,11.8-41.4,9.6
		C33.5,22.5,26,21.5,24.2,17z"/>
	<path class="st2" d="M28.5,6.6C19.8,7.5,6.2,12,4.1,21.1c-1,4.5,1.3,8.5,3.5,12.2c1.7,2.9,12.2,20.6,31.3,20
		c15.4-0.5,30.6-12.7,30.1-24.5C68.5,14.8,45.6,4.9,28.5,6.6z"/>
	<path class="st2" d="M88.8,24.4c-9.7-9.2-28.4-10.2-38.3,0c-7.6,7.9-7.3,19.7-3.5,27.8c6,12.8,22.8,20.6,34.8,15.6
		C96.6,61.6,101.5,36.6,88.8,24.4z"/>
	<path class="st2" d="M37.8,32.2c-5.2,0.1-23.1,0.5-29,12.2c-5.5,11,2.8,25.5,12.8,32.3C36.4,86.9,62,84.7,70.2,70
		c4.6-8.1,3.3-19.1-2.3-26.7C59.4,31.7,43.9,32.1,37.8,32.2z"/>
</g>
</svg>
