<?xml version="1.0" encoding="utf-8"?>
<!-- Generator: Adobe Illustrator 24.1.2, SVG Export Plug-In . SVG Version: 6.00 Build 0)  -->
<svg version="1.1" id="Слой_1" xmlns="http://www.w3.org/2000/svg" xmlns:xlink="http://www.w3.org/1999/xlink" x="0px" y="0px"
	 viewBox="0 0 100 100" style="enable-background:new 0 0 100 100;" xml:space="preserve">
<style type="text/css">
	.st0{opacity:0.5;}
	.st1{fill:#9B4B10;}
	.st2{fill:#008400;}
</style>
<g class="st0">
	<path class="st1" d="M43.76,96.95V81.93c0-1.6,1.29-2.89,2.89-2.89h6.7c1.6,0,2.89,1.29,2.89,2.89v15.02c0,1.6-1.29,2.89-2.89,2.89
		h-6.7C45.05,99.84,43.76,98.54,43.76,96.95z"/>
	<g>
		<path class="st2" d="M49.97,0.59c-32,22.47-29.28,27.92-29.28,27.92c47.81,0,56.85,0,58.55,0C79.25,28.51,81.97,23.06,49.97,0.59z
			"/>
		<path class="st2" d="M79.25,28.51c0,0,2.72-5.45-29.28-27.92"/>
		<path class="st2" d="M79.65,28.51c0,0,0,0-0.4,0"/>
		<path class="st2" d="M20.69,28.51c47.81,0,56.85,0,58.55,0"/>
		<path class="st2" d="M50,0.57c-0.01,0.01-0.02,0.01-0.03,0.02"/>
		<path class="st2" d="M20.69,28.51c-0.11,0-0.23,0-0.34,0"/>
		<path class="st2" d="M49.97,0.59c-32,22.47-29.28,27.92-29.28,27.92"/>
		<path class="st2" d="M49.94,0.57c0.01,0.01,0.02,0.01,0.03,0.02"/>
	</g>
	<g>
		<path class="st2" d="M49.96,19.8C9.5,48.22,12.94,55.11,12.94,55.11c60.45,0,71.88,0,74.04,0C86.98,55.11,90.43,48.22,49.96,19.8z
			"/>
		<path class="st2" d="M86.98,55.11c0,0,3.44-6.89-37.02-35.31"/>
		<path class="st2" d="M87.49,55.11c0,0,0,0-0.5,0"/>
		<path class="st2" d="M12.94,55.11c60.45,0,71.88,0,74.04,0"/>
		<path class="st2" d="M50,19.78c-0.01,0.01-0.02,0.02-0.04,0.03"/>
		<path class="st2" d="M12.94,55.11c-0.15,0-0.28,0-0.43,0"/>
		<path class="st2" d="M49.96,19.8C9.5,48.22,12.94,55.11,12.94,55.11"/>
		<path class="st2" d="M49.93,19.78c0.01,0.01,0.02,0.02,0.04,0.03"/>
	</g>
	<g>
		<path class="st2" d="M49.96,39.8C1.11,74.1,5.27,82.42,5.27,82.42c72.97,0,86.77,0,89.37,0C94.64,82.42,98.8,74.1,49.96,39.8z"/>
		<path class="st2" d="M94.64,82.42c0,0,4.16-8.32-44.69-42.62"/>
		<path class="st2" d="M95.25,82.42c0,0,0,0-0.61,0"/>
		<path class="st2" d="M5.27,82.42c72.97,0,86.77,0,89.37,0"/>
		<path class="st2" d="M50,39.77c-0.01,0.01-0.03,0.02-0.04,0.03"/>
		<path class="st2" d="M5.27,82.42c-0.18,0-0.34,0-0.52,0"/>
		<path class="st2" d="M49.96,39.8C1.11,74.1,5.27,82.42,5.27,82.42"/>
		<path class="st2" d="M49.91,39.77c0.01,0.01,0.03,0.02,0.04,0.03"/>
	</g>
</g>
</svg>
